<?xml version="1.0" encoding="utf-8"?>
<!-- Generator: Adobe Illustrator 27.5.0, SVG Export Plug-In . SVG Version: 6.00 Build 0)  -->
<svg version="1.1" xmlns="http://www.w3.org/2000/svg" xmlns:xlink="http://www.w3.org/1999/xlink" x="0px" y="0px"
	 viewBox="0 0 1200 800" style="enable-background:new 0 0 1200 800;" xml:space="preserve">
<g id="Background">
	<linearGradient id="SVGID_1_" gradientUnits="userSpaceOnUse" x1="100" y1="900" x2="1100" y2="-100">
		<stop  offset="0" style="stop-color:#E9E9E9"/>
		<stop  offset="0.9996" style="stop-color:#DFDFDF"/>
	</linearGradient>
	<rect style="fill:url(#SVGID_1_);" width="1200" height="800"/>
</g>
<g id="Graphic_Elements">
	<g>
		<defs>
			<rect id="SVGID_00000039812225508482673510000004325850578141831838_" width="1200" height="800"/>
		</defs>
		<clipPath id="SVGID_00000080924848025382458320000007503064182131551152_">
			<use xlink:href="#SVGID_00000039812225508482673510000004325850578141831838_"  style="overflow:visible;"/>
		</clipPath>
		<g style="clip-path:url(#SVGID_00000080924848025382458320000007503064182131551152_);">
			<g>
				
					<linearGradient id="SVGID_00000137854339392985241910000016783381800163033749_" gradientUnits="userSpaceOnUse" x1="839.6074" y1="-36.5759" x2="1502.9695" y2="-36.5759">
					<stop  offset="0" style="stop-color:#D2D2D2"/>
					<stop  offset="1" style="stop-color:#E0E0E0"/>
				</linearGradient>
				<path style="fill:url(#SVGID_00000137854339392985241910000016783381800163033749_);" d="M1495.528-138.767l-0.435-0.433
					c-9.902-9.87-25.931-9.845-35.802,0.056l-4.244,4.256c-9.872,9.901-25.9,9.926-35.802,0.056l-0.435-0.433
					c-9.903-9.87-25.932-9.845-35.803,0.057l-38.27,38.387c-9.991,10.021-26.213,10.046-36.235,0.055l0,0
					c-10.021-9.991-10.046-26.213-0.055-36.235l56.56-56.733c9.871-9.901,9.846-25.93-0.056-35.8l-0.434-0.433
					c-9.902-9.871-25.931-9.846-35.802,0.056L1204.245-101.06c-9.991,10.021-26.214,10.046-36.235,0.055l0,0
					c-10.021-9.991-10.046-26.213-0.055-36.235l124.472-124.852c9.871-9.901,9.847-25.93-0.055-35.801l-0.434-0.433
					c-9.902-9.871-25.931-9.846-35.802,0.055L971.23-12.494c-9.991,10.021-9.966,26.244,0.055,36.235h0
					c10.021,9.991,10.046,26.213,0.055,36.235L847.084,184.61c-9.991,10.021-9.966,26.244,0.055,36.234l0,0
					c10.021,9.991,26.244,9.966,36.234-0.055L1007.63,96.155c9.991-10.021,26.214-10.046,36.235-0.055l0,0
					c10.021,9.991,10.046,26.213,0.055,36.235l-56.343,56.515c-9.991,10.021-9.966,26.244,0.055,36.234v0
					c10.021,9.991,26.244,9.966,36.235-0.055l38.055-38.172c9.991-10.021,26.214-10.046,36.235-0.055l0,0
					c10.021,9.991,26.244,9.966,36.235-0.055l3.814-3.825c9.991-10.021,26.214-10.046,36.235-0.055v0
					c10.021,9.991,26.244,9.966,36.235-0.055l284.907-285.777C1505.453-112.867,1505.429-128.896,1495.528-138.767z"/>
				
					<linearGradient id="SVGID_00000058557449505196834760000012591601501852307096_" gradientUnits="userSpaceOnUse" x1="781.0898" y1="-109.0605" x2="1370.307" y2="-109.0605" gradientTransform="matrix(1 -0.0015 0.0015 1 -0.8299 0.9897)">
					<stop  offset="0" style="stop-color:#B8B8B8"/>
					<stop  offset="1" style="stop-color:#E0E0E0"/>
				</linearGradient>
				<path style="fill:url(#SVGID_00000058557449505196834760000012591601501852307096_);" d="M1074.834-26.281L1074.834-26.281
					c9.799,9.769,9.823,25.632,0.054,35.432l-74.569,74.797c-9.769,9.799-9.745,25.662,0.054,35.432l0,0
					c9.799,9.769,9.823,25.632,0.054,35.431l-15.644,15.691c-9.769,9.799-9.745,25.662,0.054,35.432l0,0
					c9.799,9.769,25.662,9.745,35.432-0.054l251.457-252.225c9.769-9.799,9.745-25.662-0.054-35.432l0,0
					c-9.799-9.769-9.823-25.632-0.054-35.431l15.644-15.691c9.769-9.799,9.745-25.662-0.054-35.432v0
					c-9.799-9.769-9.823-25.632-0.054-35.431l74.569-74.797c9.769-9.799,9.745-25.662-0.054-35.431l0,0
					c-9.799-9.769-25.662-9.745-35.432,0.054l-41.845,41.973c-9.769,9.799-25.632,9.823-35.431,0.054h0
					c-9.799-9.769-25.662-9.745-35.432,0.054l-54.559,54.725c-9.769,9.799-25.633,9.823-35.432,0.054v0
					c-9.799-9.769-9.823-25.633-0.054-35.432l21.835-21.901c9.769-9.799,9.745-25.662-0.054-35.431l0,0
					c-9.799-9.769-9.823-25.633-0.054-35.432l44.498-44.634c9.769-9.799,9.745-25.662-0.054-35.432l0,0
					c-9.799-9.769-25.662-9.745-35.432,0.054l-44.498,44.634c-9.769,9.799-25.632,9.823-35.431,0.054l0,0
					c-9.799-9.769-25.662-9.745-35.432,0.054L787.405-128.318c-9.769,9.799-9.745,25.662,0.054,35.431l0,0
					c9.799,9.769,25.662,9.745,35.432-0.054l44.498-44.634c9.769-9.799,25.632-9.823,35.432-0.054l0,0
					c9.799,9.769,9.823,25.632,0.054,35.431l-44.498,44.634c-9.769,9.799-9.745,25.662,0.054,35.431v0
					c9.799,9.769,9.823,25.632,0.054,35.431L836.65,35.201c-9.769,9.799-9.745,25.662,0.054,35.431l0,0
					c9.799,9.769,25.662,9.745,35.432-0.054l54.559-54.725c9.769-9.799,25.633-9.823,35.431-0.054h0
					c9.799,9.769,25.662,9.745,35.431-0.054l41.845-41.973C1049.172-36.027,1065.035-36.051,1074.834-26.281z"/>
				
					<linearGradient id="SVGID_00000124137379830702888090000011768074676277044618_" gradientUnits="userSpaceOnUse" x1="1126.5085" y1="233.0766" x2="1177.7521" y2="233.0766" gradientTransform="matrix(1 -0.0015 0.0015 1 -0.8299 0.9897)">
					<stop  offset="0" style="stop-color:#B0B0B0"/>
					<stop  offset="1" style="stop-color:#E0E0E0"/>
				</linearGradient>
				<circle style="fill:url(#SVGID_00000124137379830702888090000011768074676277044618_);" cx="1151.65" cy="232.338" r="25.622"/>
				
					<linearGradient id="SVGID_00000070105069072568147670000010021373303660823980_" gradientUnits="userSpaceOnUse" x1="788.8868" y1="102.4918" x2="840.1306" y2="102.4918" gradientTransform="matrix(1 -0.0015 0.0015 1 -0.8299 0.9897)">
					<stop  offset="0" style="stop-color:#B8B8B8"/>
					<stop  offset="1" style="stop-color:#E0E0E0"/>
				</linearGradient>
				<circle style="fill:url(#SVGID_00000070105069072568147670000010021373303660823980_);" cx="813.833" cy="102.26" r="25.622"/>
			</g>
			<g>
				
					<linearGradient id="SVGID_00000096018182514601259590000009466412439016711348_" gradientUnits="userSpaceOnUse" x1="-436.6732" y1="501.7455" x2="152.2668" y2="501.7455">
					<stop  offset="0" style="stop-color:#A8A8A8"/>
					<stop  offset="1" style="stop-color:#D2D2D2"/>
				</linearGradient>
				<path style="fill:url(#SVGID_00000096018182514601259590000009466412439016711348_);" d="M-141.933,585.167L-141.933,585.167
					c9.799,9.769,9.823,25.633,0.054,35.432l-74.57,74.797c-9.769,9.799-9.745,25.662,0.054,35.432h0
					c9.799,9.769,9.823,25.632,0.054,35.432l-15.644,15.691c-9.769,9.799-9.745,25.662,0.054,35.432l0,0
					c9.799,9.769,25.662,9.745,35.432-0.054L54.959,565.103c9.769-9.799,9.745-25.662-0.054-35.431l0,0
					c-9.799-9.769-9.823-25.632-0.054-35.432l15.644-15.691c9.769-9.799,9.745-25.662-0.054-35.432v0
					c-9.799-9.769-9.823-25.633-0.054-35.431l74.569-74.797c9.769-9.799,9.745-25.662-0.054-35.431l0,0
					c-9.799-9.769-25.662-9.745-35.431,0.054l-41.845,41.973c-9.769,9.799-25.632,9.823-35.431,0.054l0,0
					c-9.799-9.769-25.662-9.745-35.432,0.054l-54.559,54.725c-9.769,9.799-25.633,9.823-35.431,0.054l0,0
					c-9.799-9.769-9.823-25.632-0.054-35.431l21.835-21.901c9.769-9.799,9.745-25.662-0.054-35.432h0
					c-9.799-9.769-9.823-25.632-0.054-35.431l44.498-44.634c9.769-9.799,9.745-25.662-0.054-35.431v0
					c-9.799-9.769-25.662-9.745-35.432,0.054l-44.499,44.634c-9.769,9.799-25.632,9.823-35.431,0.054l0,0
					c-9.799-9.769-25.662-9.745-35.432,0.054L-429.362,483.13c-9.769,9.799-9.745,25.662,0.054,35.431l0,0
					c9.799,9.769,25.662,9.745,35.432-0.054l44.498-44.634c9.769-9.799,25.632-9.823,35.431-0.054h0
					c9.799,9.769,9.823,25.633,0.054,35.432l-44.499,44.634c-9.769,9.799-9.745,25.662,0.054,35.431l0,0
					c9.799,9.769,9.823,25.633,0.054,35.432l-21.835,21.901c-9.769,9.799-9.745,25.662,0.054,35.432l0,0
					c9.799,9.769,25.662,9.745,35.432-0.054l54.559-54.725c9.769-9.799,25.632-9.823,35.432-0.054l0,0
					c9.799,9.769,25.662,9.745,35.431-0.054l41.845-41.973C-167.596,575.422-151.732,575.398-141.933,585.167z"/>
				
					<linearGradient id="SVGID_00000110437931758773537770000000247195451280151209_" gradientUnits="userSpaceOnUse" x1="180.7113" y1="982.676" x2="700.9113" y2="982.676" gradientTransform="matrix(1 -0.0015 0.0015 1 -0.8299 0.9897)">
					<stop  offset="0" style="stop-color:#E0E0E0"/>
					<stop  offset="1" style="stop-color:#B0B0B0"/>
				</linearGradient>
				<path style="fill:url(#SVGID_00000110437931758773537770000000247195451280151209_);" d="M207.209,1047.164l-18.227,18.282
					c-9.991,10.021-9.966,26.244,0.055,36.235h0c10.021,9.991,26.244,9.966,36.234-0.055l69.842-70.055
					c9.991-10.021,26.213-10.046,36.235-0.055v0c10.021,9.991,10.046,26.214,0.055,36.235l-69.842,70.055
					c-9.991,10.021-9.966,26.244,0.055,36.234v0c10.021,9.991,26.244,9.966,36.235-0.055l38.839-38.958
					c9.991-10.021,26.214-10.046,36.235-0.055v0c10.021,9.991,10.046,26.214,0.055,36.235l-69.353,69.565
					c-9.991,10.021-9.966,26.244,0.055,36.235l0,0c10.021,9.991,26.244,9.966,36.234-0.055l284.691-285.56
					c9.991-10.021,9.966-26.244-0.055-36.235l0,0c-10.021-9.991-10.046-26.213-0.055-36.235l69.353-69.565
					c9.991-10.021,9.966-26.244-0.055-36.235h0c-10.021-9.991-26.244-9.966-36.235,0.055l-38.839,38.958
					c-9.991,10.021-26.213,10.046-36.235,0.055l0,0c-10.021-9.991-10.046-26.213-0.055-36.235l69.842-70.055
					c9.991-10.021,9.966-26.244-0.055-36.235l0,0c-10.021-9.991-26.244-9.966-36.235,0.055l-69.842,70.055
					c-9.991,10.021-26.214,10.046-36.235,0.055l0,0c-10.021-9.991-10.046-26.214-0.055-36.235l18.227-18.282
					c9.991-10.021,9.966-26.244-0.055-36.235h0c-10.021-9.991-26.244-9.966-36.235,0.055l-284.691,285.56
					c-9.991,10.021-9.966,26.244,0.055,36.235v0C217.175,1020.92,217.2,1037.143,207.209,1047.164z"/>
				
					<linearGradient id="SVGID_00000137121673004849459530000010546656284554998441_" gradientUnits="userSpaceOnUse" x1="-52.2563" y1="911.5647" x2="476.5531" y2="911.5647" gradientTransform="matrix(1 -0.0015 0.0015 1 -0.8299 0.9897)">
					<stop  offset="0" style="stop-color:#E0E0E0"/>
					<stop  offset="1" style="stop-color:#B0B0B0"/>
				</linearGradient>
				<path style="fill:url(#SVGID_00000137121673004849459530000010546656284554998441_);" d="M86.08,1149.105l26.107-26.187
					c9.991-10.021,26.213-10.046,36.235-0.055h0c10.021,9.991,26.244,9.966,36.235-0.055l284.908-285.777
					c9.871-9.901,9.847-25.93-0.055-35.801l-0.434-0.433c-9.901-9.871-25.93-9.847-35.801,0.055l-26.324,26.404
					c-9.991,10.021-26.214,10.046-36.235,0.055l0,0c-10.021-9.991-10.046-26.214-0.055-36.235l7.565-7.588
					c9.871-9.901,9.847-25.93-0.055-35.801l-0.434-0.433c-9.901-9.871-9.926-25.9-0.055-35.801h0
					c9.871-9.901,9.847-25.93-0.055-35.801l-0.434-0.433c-9.901-9.871-25.93-9.847-35.801,0.054l-28.548,28.635
					c-9.871,9.901-25.9,9.926-35.801,0.055l-0.434-0.433c-9.901-9.871-25.93-9.847-35.801,0.055L-44.1,989.362
					c-9.991,10.021-9.966,26.244,0.055,36.235h0c10.021,9.991,26.244,9.966,36.235-0.055l28.548-28.635
					c9.752-9.781,25.586-9.805,35.367-0.054l0.869,0.866c9.781,9.752,9.805,25.586,0.054,35.367l0,0
					c-9.991,10.021-9.966,26.244,0.055,36.235h0c10.021,9.991,10.046,26.214,0.055,36.235l-7.348,7.37
					c-9.991,10.021-9.966,26.244,0.055,36.235h0C59.867,1159.151,76.09,1159.126,86.08,1149.105z"/>
				
					<linearGradient id="SVGID_00000090990801794067594940000016868193886003664529_" gradientUnits="userSpaceOnUse" x1="-402.176" y1="840.6099" x2="256.834" y2="840.6099" gradientTransform="matrix(1 -0.0015 0.0015 1 -0.8299 0.9897)">
					<stop  offset="0" style="stop-color:#E0E0E0"/>
					<stop  offset="1" style="stop-color:#B8B8B8"/>
				</linearGradient>
				<path style="fill:url(#SVGID_00000090990801794067594940000016868193886003664529_);" d="M-254.316,912.907l-139.609,140.035
					c-9.991,10.021-9.966,26.244,0.055,36.235v0c10.021,9.991,26.244,9.966,36.235-0.055l55.624-55.794
					c9.991-10.021,26.214-10.046,36.235-0.055h0c10.021,9.991,10.046,26.214,0.055,36.235l-78.239,78.478
					c-9.991,10.021-9.966,26.244,0.055,36.235l0,0c10.021,9.991,26.244,9.966,36.235-0.055l16.196-16.246
					c9.991-10.021,26.214-10.046,36.235-0.055l0,0c10.021,9.991,26.244,9.966,36.235-0.055l34.429-34.534
					c9.991-10.021,26.213-10.046,36.235-0.055l0.878,0.875c9.536,9.507,9.56,24.945,0.052,34.481v0
					c-9.991,10.021-9.966,26.244,0.055,36.235l0,0c10.021,9.991,26.244,9.966,36.235-0.055l361.065-362.167
					c9.749-9.779,9.725-25.609-0.054-35.358l-0.878-0.875c-9.779-9.749-9.803-25.579-0.054-35.358l0,0
					c9.749-9.779,9.725-25.609-0.054-35.358l-0.878-0.875c-9.779-9.749-25.609-9.725-35.358,0.054l-35.304,35.412
					c-9.749,9.779-25.579,9.803-35.358,0.054l-0.878-0.875c-9.779-9.749-25.609-9.725-35.358,0.054l-16.634,16.685
					c-9.991,10.021-26.213,10.046-36.235,0.055l0,0c-10.021-9.991-10.046-26.214-0.055-36.235l78.676-78.917
					c9.749-9.779,9.725-25.609-0.054-35.358l-0.878-0.875c-9.779-9.749-25.609-9.725-35.358,0.054l-56.062,56.232
					c-9.991,10.021-26.213,10.046-36.235,0.055h0c-10.021-9.991-10.046-26.213-0.055-36.235L142.929,514.45
					c9.749-9.779,9.725-25.609-0.054-35.358l-0.878-0.875c-9.779-9.749-25.609-9.725-35.358,0.054l-361.065,362.167
					c-9.991,10.021-9.966,26.244,0.055,36.235l0,0C-244.35,886.663-244.325,902.885-254.316,912.907z"/>
				
					<linearGradient id="SVGID_00000046323716810773426540000012002368529806827958_" gradientUnits="userSpaceOnUse" x1="129.4568" y1="609.4791" x2="180.7003" y2="609.4791" gradientTransform="matrix(1 -0.0015 0.0015 1 -0.8299 0.9897)">
					<stop  offset="0" style="stop-color:#B0B0B0"/>
					<stop  offset="1" style="stop-color:#E0E0E0"/>
				</linearGradient>
				<circle style="fill:url(#SVGID_00000046323716810773426540000012002368529806827958_);" cx="155.163" cy="610.236" r="25.622"/>
				
					<linearGradient id="SVGID_00000085958125738119803130000009611107279548566666_" gradientUnits="userSpaceOnUse" x1="30.9297" y1="300.8448" x2="82.1734" y2="300.8448" gradientTransform="matrix(1 -0.0015 0.0015 1 -0.8299 0.9897)">
					<stop  offset="0" style="stop-color:#B8B8B8"/>
					<stop  offset="1" style="stop-color:#E0E0E0"/>
				</linearGradient>
				<circle style="fill:url(#SVGID_00000085958125738119803130000009611107279548566666_);" cx="56.173" cy="301.75" r="25.622"/>
				
					<linearGradient id="SVGID_00000176751664805547253800000000471327027699365563_" gradientUnits="userSpaceOnUse" x1="610.184" y1="918.8732" x2="1274.045" y2="918.8732" gradientTransform="matrix(0.0015 1 1 -0.0015 -5.6728 5.8568)">
					<stop  offset="0" style="stop-color:#B8B8B8"/>
					<stop  offset="1" style="stop-color:#E0E0E0"/>
				</linearGradient>
				<path style="fill:url(#SVGID_00000176751664805547253800000000471327027699365563_);" d="M813.459,1271.262l-0.434-0.433
					c-9.9-9.872-9.924-25.901-0.053-35.802l4.243-4.257c9.871-9.902,9.847-25.93-0.053-35.802l-0.435-0.433
					c-9.9-9.873-9.924-25.902-0.052-35.803l38.27-38.387c9.991-10.021,9.966-26.244-0.055-36.235l0,0
					c-10.021-9.991-26.244-9.966-36.235,0.055l-56.56,56.733c-9.871,9.901-25.899,9.925-35.8,0.054l-0.434-0.433
					c-9.901-9.872-9.925-25.9-0.053-35.802l124.471-124.851c9.991-10.021,9.966-26.244-0.055-36.235l0,0
					c-10.021-9.991-26.244-9.966-36.235,0.055l-124.472,124.852c-9.871,9.901-25.9,9.926-35.801,0.054l-0.435-0.433
					c-9.901-9.872-9.925-25.901-0.053-35.802l284.906-285.776c9.991-10.021,26.214-10.046,36.235-0.055v0
					c10.021,9.991,26.244,9.966,36.235-0.055l124.256-124.635c9.991-10.021,26.214-10.046,36.235-0.055l0,0
					c10.021,9.991,10.046,26.213,0.055,36.235l-124.256,124.635c-9.991,10.021-9.966,26.244,0.055,36.235v0
					c10.021,9.991,26.244,9.966,36.235-0.055l56.343-56.515c9.991-10.021,26.214-10.046,36.235-0.055h0
					c10.021,9.991,10.046,26.213,0.055,36.234l-38.055,38.172c-9.991,10.021-9.966,26.244,0.055,36.235l0,0
					c10.021,9.991,10.046,26.213,0.055,36.235l-3.814,3.825c-9.991,10.021-9.966,26.244,0.055,36.235l0,0
					c10.021,9.991,10.046,26.214,0.055,36.235L849.26,1271.207C839.389,1281.108,823.361,1281.133,813.459,1271.262z"/>
				
					<linearGradient id="SVGID_00000112616259742080101460000017888874588779840183_" gradientUnits="userSpaceOnUse" x1="969.9012" y1="714.7855" x2="1021.145" y2="714.7855">
					<stop  offset="0" style="stop-color:#B0B0B0"/>
					<stop  offset="1" style="stop-color:#E0E0E0"/>
				</linearGradient>
				<circle style="fill:url(#SVGID_00000112616259742080101460000017888874588779840183_);" cx="995.523" cy="714.786" r="25.622"/>
			</g>
		</g>
	</g>
</g>
</svg>
